<svg version="1" xmlns="http://www.w3.org/2000/svg" width="682.667" height="682.667" viewBox="0 0 512.000000 512.000000"><path d="M343 31.7c-7.7 1.2-22.8 5.2-86.8 22.8C100.8 97.1 104.6 95.9 84 106.8c-21.8 11.6-34.4 25.4-39.3 43.3-4.1 14.5-4.2 18.7-4.2 147.9 0 118.6.1 124.8 1.9 130.5 6.3 20.4 20.7 34.8 41.1 41.1 5.8 1.8 12.9 1.9 172.5 1.9s166.7-.1 172.5-1.9c20.4-6.3 34.8-20.7 41.1-41.1 1.8-5.7 1.9-11.7 1.9-124 0-92.9-.3-119.2-1.3-123.5-.7-3-2.9-8.9-4.9-13-5.1-10.3-17.7-23-28.3-28.3-11-5.4-17.2-6.7-33.2-6.7H390l-.1-8.8c-.1-4.8 0-9.1.1-9.7.5-2.8-.2-37.5-1-47-1.7-19.9-5.6-27.5-16.9-33.3-6.1-3-7-3.2-16.5-3.1-5.6.1-11.2.4-12.6.6zM361.5 53c5.3 2 6 5.8 6.2 35 .2 14.6.5 27.1.8 27.7.2.7 0 1.3-.6 1.3s-.6.7.1 2c.8 1.4.8 2 0 2s-.8.6 0 2c.8 1.5.8 2-.2 2-.9 0-.9.3 0 1.2.8.8.9 1.5.1 2.5-.8.9-.8 1.3-.1 1.3.6 0 .9.7.6 1.5-.5 1.3-16.8 1.5-137.6 1.5-145.9 0-142.9-.1-152 4.6-4.6 2.4-3.2.7 3.5-4.2 14.2-10.5 29.4-16.6 68.7-27.5 81-22.5 181.2-49.8 188-51.3 13.4-2.8 18.4-3.1 22.5-1.6zm57.6 103c12.1 3.7 21.7 11.8 27.2 23l3.2 6.5.3 115.4c.3 128.7.6 122.4-6.6 133-7.4 10.8-19 16.1-35.1 16.1h-8.6l12.3-12.3c6.7-6.7 12.2-12.6 12.2-13 0-.4-19.7-.7-43.8-.7h-43.7l-13 13-13 13H290l-.2-54.5-.3-54.5-44.8-44.7-44.7-44.8v179.9l-9.2 9.3-9.3 9.3h-43c-48.5 0-51.1-.3-60.4-6.8-3-2.1-7.2-6.3-9.3-9.3-7.2-10.3-6.9-4.3-6.6-132l.3-114.5 3.9-8c4.4-8.8 12.6-17.8 19.1-20.9 9.4-4.5 5.1-4.4 170.1-4.4 153.5-.1 157.3-.1 163.5 1.9z"/><path d="M109 206.2l.1 44.3 22.2 22.2C143.5 285 154.2 295 155 295c.8 0-3.2 4.7-9 10.5L135.5 316l31.8 31.8 31.7 31.7V270.7c0-59.8-.2-108.7-.4-108.7s-10.4 9.8-22.6 21.7l-22.1 21.8-21.7-21.8c-11.9-11.9-22-21.7-22.4-21.7-.5 0-.8 19.9-.8 44.2zM384.3 278c-9.1 3.6-16.3 14.2-16.3 24 0 5.2 3.1 13.1 6.8 17.2 12.9 14.3 36.9 10.2 43.7-7.5 2.1-5.7 1.7-16.5-.9-21.4-6-11.8-20.8-17.2-33.3-12.3z"/></svg>